# xmcd
#
# Track frame offsets: 
#        150
#        14792
#        36555
#        55365
#        73665
#        90930
#        116352
#        133727
#        149222
#        168087
#        184475
#
# Disc length: 2673 seconds
#
# Revision: 3
# Processed by: cddbd v1.5.2PL0 Copyright (c) Steve Scherf et al.
# Submitted via: ExactAudioCopy v0.99pb5
#
DISCID=a80a6f0b
DTITLE=Aaron Lines - Living Out Loud
DYEAR=2003
DGENRE=Country
TTITLE0=Love Changes Everything
TTITLE1=I Will Be There
TTITLE2=Close
TTITLE3=Living Out Loud
TTITLE4=Turn It Up (I Like The Sound Of That)
TTITLE5=I Can't Live Without Your Love
TTITLE6=You Can't Hide Beautiful
TTITLE7=Knock On Wood
TTITLE8=Old Days New
TTITLE9=She Called Me Kansas
TTITLE10=You Get The Picture
EXTD=
EXTT0=
EXTT1=
EXTT2=
EXTT3=
EXTT4=
EXTT5=
EXTT6=
EXTT7=
EXTT8=
EXTT9=
EXTT10=
PLAYORDER=
